<svg width="17" height="20" viewBox="0 0 17 20" fill="none" xmlns="http://www.w3.org/2000/svg">
<path d="M1.5675 0.999906C1.90217 0.956455 2.24154 1.03069 2.5275 1.20991L12.2775 6.75241L9.81 9.24991L1.5675 0.999906ZM0.817501 1.74991C0.770481 1.91319 0.747738 2.0825 0.750001 2.25241V17.7474C0.747738 17.9173 0.770481 18.0866 0.817501 18.2499L9.0675 9.99991L0.817501 1.74991ZM9.8175 10.7499L1.5675 18.9999C1.90233 19.0473 2.24304 18.9728 2.5275 18.7899L12.2775 13.2474L9.8175 10.7499ZM16.2075 8.99491L13.2525 7.31491L10.5525 9.99991L13.245 12.6924L16.2 11.0124C17.175 10.4574 17.175 9.54241 16.2 8.98741L16.2075 8.99491Z" fill="white"/>
</svg>
