<svg width="17" height="21" viewBox="0 0 17 21" fill="none" xmlns="http://www.w3.org/2000/svg">
<path d="M14.1271 11.0996C14.1271 9.36905 15.0589 7.85939 16.4413 7.05983C15.7195 6.16072 14.6336 5.35494 13.4367 5.1185C11.8045 4.79572 10.8735 5.33316 10.2712 5.54861C9.6689 5.76405 8.8689 5.95772 8.8689 5.95772C8.8689 5.95772 8.06967 5.76405 7.4666 5.54861C6.86507 5.33316 5.93403 4.79494 4.30185 5.11772C2.66967 5.4405 1.24438 6.82261 0.665068 8.05461C-0.452174 10.4323 0.00759654 13.4236 0.796869 15.5749C1.58537 17.7271 3.67043 20.7339 5.28729 20.9758C6.43748 21.1477 7.14936 20.3412 8.8689 20.1366C10.5884 20.3412 11.3003 21.1477 12.4505 20.9758C14.0674 20.7339 16.1524 17.7271 16.9409 15.5749C16.9601 15.5221 16.98 15.4676 16.9992 15.4132C15.3156 14.7272 14.1271 13.0542 14.1271 11.0996ZM8.46047 4.72494C8.46047 4.72494 10.0597 4.94039 11.5118 3.26661C12.9639 1.59283 12.5509 0.00927438 12.5509 0.00927438C12.5509 0.00927438 10.9517 -0.20617 9.49955 1.46761C8.04744 3.14139 8.46047 4.72494 8.46047 4.72494Z" fill="white"/>
</svg>
